<?xml version="1.0" encoding="utf-8"?>
<!-- Generator: Adobe Illustrator 17.0.0, SVG Export Plug-In . SVG Version: 6.00 Build 0)  -->
<!DOCTYPE svg PUBLIC "-//W3C//DTD SVG 1.1//EN" "http://www.w3.org/Graphics/SVG/1.1/DTD/svg11.dtd">
<svg version="1.1" id="Слой_1" xmlns="http://www.w3.org/2000/svg" xmlns:xlink="http://www.w3.org/1999/xlink" x="0px" y="0px"
	 width="8.973px" height="6.988px" viewBox="0 0 8.973 6.988" enable-background="new 0 0 8.973 6.988" xml:space="preserve">
<path fill-rule="evenodd" clip-rule="evenodd" fill="#ffffff" d="M7.804,0.11c-0.145-0.147-0.384-0.147-0.529,0l-3.58,3.56
	c-0.146,0.148-0.384,0.148-0.53,0L1.721,2.177c-0.072-0.073-0.167-0.11-0.262-0.11c-0.097-0.001-0.194,0.036-0.267,0.11L0.111,3.15
	C0.039,3.224,0,3.316,0,3.413C0,3.51,0.039,3.612,0.111,3.685l1.465,1.589c0.145,0.148,0.384,0.388,0.53,0.535l1.06,1.069
	c0.145,0.146,0.384,0.146,0.53,0l5.168-5.164c0.146-0.146,0.146-0.388,0-0.535L7.804,0.11z"/>
</svg>
