<svg xmlns="http://www.w3.org/2000/svg" xmlns:xlink="http://www.w3.org/1999/xlink"><symbol viewBox="-10 13 30 30" id="close-icon" xmlns="http://www.w3.org/2000/svg"><path d="M-3.064 17L16 36.065 13.065 39-6 19.936-3.064 17z"/><path d="M13.063 17L16 19.936-3.065 39-6 36.065 13.063 17z"/></symbol><symbol viewBox="-9 -7 30 30" id="play-icon" xmlns="http://www.w3.org/2000/svg"><path d="M0 1.14A1.19 1.19 0 0 1 .93.08a1.86 1.86 0 0 1 1.63.25l9 6.86a1 1 0 0 1 0 1.621l-9 6.859a1.85 1.85 0 0 1-1.63.25A1.189 1.189 0 0 1 0 14.859V1.14z"/></symbol></svg>